<svg width="1235" height="791" fill="none" xmlns="http://www.w3.org/2000/svg"><path d="M461.38 598.204c.51-.904.81-1.801.368-2.855-.458-1.076-.87-2.189-1.125-3.325-.668-2.966.052-5.604 2.332-7.793 1.358-1.308 2.693-2.645 4.14-3.856.765-.642 1.71-1.33 2.67-1.494 2.685-.456 4.935-1.637 7.17-3.027 2.573-1.599 4.928-2.249 7.523.531.337.366.825.613 1.237.912.795 1.823 1.598 3.646 2.468 5.641 2.49-.538 4.725-1.083 6.885.329.562.366 1.777.164 2.527-.142 1.125-.456 2.1-1.24 3.143-1.883 1.882-.045 3.442.553 4.657 1.965.78.904 1.68 1.711 2.535 2.563 1.103 1.92 2.97 2.638 5.13 2.772 1.973.12 3.203-.979 4.088-2.51 3.525-1.562 6.93-1.51 10.192.642.938 1.801 1.845 3.826 4.223 4.073 3.307.343 6.652.366 9.99.425.847.015 1.732-.336 1.687-1.733-1.222-.635-2.625-1.248-3.892-2.04-1.455-.912-2.79-1.995-4.208-2.959-.255-.172-.682-.112-1.027-.157-.495-1.039-.945-2.1-1.5-3.108-.9-1.629-.915-3.355.285-4.67 2.422-2.653 2.287-5.762 2.332-8.892.008-.822-.067-1.644-.105-2.466-.097-2.347-.195-4.7-.285-7.047.323-2.114-.735-3.9-1.642-5.671-.87-1.689-2.325-2.839-4.283-3.475-2.977-.971-5.902-2.092-8.85-3.153-1.8-2.6-4.575-3.983-7.395-5.305-.802-.874-1.575-1.764-2.407-2.608-1.373-1.397-1.553-2.899-.548-4.543.263-.433.563-.844.78-1.293 1.238-2.585.945-3.833-1.305-5.649a4.812 4.812 0 0 0-.862-.568c-3.075-1.591-3.795-4.124-3.24-7.18 1.425-1.801 2.94-3.565 2.677-6.031.195-2.137.518-4.274.525-6.411 0-.829-.72-1.659-1.125-2.503-2.647.441-4.447 1.823-6.42 2.832-3.675-1.195-5.377-3.863-6.532-7.218-1.793-5.223-5.123-9.004-11.528-9.213-.345-.015-.682-.135-1.027-.21-3.96-4.169-3.653-9.22-3.24-14.264.06-.762.682-1.494 1.087-2.219 1.073-1.906 2.168-3.804 3.278-5.746-1.688-3.116-1.163-5.933.9-8.556 1.012-.561 1.23-1.509 1.162-2.458-.112-1.577-.382-3.146-.592-4.715.112-1.368.217-2.743.33-4.11.172-.456.532-.942.472-1.368-.45-3.265-2.49-6.194-6.045-8.608-1.305 1.226-2.655 2.504-4.012 3.781-1.89.419-3.45-.015-4.748-1.442-.435-.485-1.125-.762-1.702-1.128-2.018-1.823-4.043-3.646-6.06-5.47l-4.29-6.067c-.113-4.14-2.513-6.419-6.645-7.256-1.545-.314-3.098-.695-4.658-.799-5.452-.359-5.79-.18-9.337 3.945-.33.381-.57.83-.855 1.248-1.118.142-2.228.276-3.345.418-.608-.538-1.215-1.083-1.823-1.621-.525-.829-.997-1.696-1.597-2.481-.758-.994-1.763-1.532-3.12-1.098-.938-.142-1.883-.292-2.82-.434l-.428-2.929c.908-1.016 1.95-1.957 2.7-3.071 1.02-1.509.158-2.959-1.8-3.265a11.406 11.406 0 0 0-1.59-.12c-2.67-.045-5.295-.052-7.725-1.472-1.162-.68-2.4-.06-3.307.897-.78-.329-1.568-.658-2.348-.994l-1.822-5.193c-.33-.344-.66-.695-.998-1.039-1.987-.605-3.997-1.173-5.97-1.838-1.935-.657-4.11-1.009-5.092-3.086a2048.31 2048.31 0 0 1-3.285-4.042c-3.915-5.059-7.253-6.27-13.238-4.678-1.882.501-3.705 1.21-5.535 1.861-3.555 1.255-6.952 1.262-10.162-.927-.705-.478-1.56-.762-2.16-1.046-2.52.254-4.23 1.449-5.693 2.966-1.432 1.48-3.202 2.033-5.25 2.085-2.512.067-4.905.023-7.117-1.532-2.025-1.419-4.35-1.263-6.555-.082-.623.329-1.238.665-1.868.986-2.175 1.106-4.342 1.293-6.645.24-1.05-.479-2.257-.665-3.157-.92-.6.479-.975.636-1.125.912-1.493 2.735-3.75 4.371-7.065 4.737-1.448.157-2.813.822-3.473 2.123-1.35 2.652-3.742 3.362-6.57 3.579-2.115.164-4.222.5-6.33.814a22.859 22.859 0 0 0-3.082.665c-1.68.501-3.308 1.158-4.995 1.629-1.703.471-2.738 1.427-3.21 3.041-.428 1.443-.765 2.974-1.545 4.245-1.703 2.757-3.615 5.41-5.535 8.04-1.575 2.167-3.773 3.586-6.533 4.057-1.747.299-3.525.546-5.287.59-4.275.105-8.558.113-12.833.098-1.822-.008-3.547.171-5.115 1.135-2.19 1.353-4.642 1.562-7.177 1.547-6.773-.037-13.553-.022-20.325-.03-1.785 0-3.563-.037-5.348-.037-3.847-.015-6.87 1.577-9.225 4.349-1.005 1.18-1.837 2.48-2.782 3.698-2.588 3.318-5.753 5.956-9.908 7.428-.645.231-1.222.642-1.83.964-1.777.321-3.555.635-5.332.956l-4.125-.336c-2.22-.643-3.758-2.159-5.258-3.721l-.405-.987c-.27-.493-.532-.978-.802-1.472l.105-.276-.21-.217c-.968-3.093-3.12-4.976-6.443-5.679-.922-.53-1.837-1.061-2.76-1.591-.495-.613-.99-1.218-1.485-1.831.173-1.681-.855-2.914-1.755-4.192-.922-2.951-2.955-5.141-6.075-5.664-4.312-.717-8.79-1.009-12.967.733-2.003.836-3.968 1.188-6.12 1.128-1.395-.038-2.798.157-4.193.246-2.115-.224-4.26-.328-6.15-1.427-4.2-2.951-8.685-5.021-14.145-4.065-2.19-.665-4.432-1.218-6.562-2.017-3.465-1.3-6.9-2.683-10.275-4.17-3.15-1.389-6.368-2.017-9.833-1.629-3.825.426-7.425-.261-10.702-2.241-6.638-6.748-7.77-7.629-11.505-8.795-1.283 1.218-2.693 2.481-4.013 3.826-1.282 1.315-2.76 1.987-4.702 1.928-1.553-.045-3.24-.329-4.508.956-2.498.545-4.02 2.212-5.348 4.11l-1.125.784c-1.65.075-3.337.493-4.92-.523a625.48 625.48 0 0 0-.69-3.25c.008-1.009.023-2.01.03-3.019.113-1.636.33-3.265.316-4.902-.03-2.914-.87-3.833-3.99-4.057-1.883-.135-3.795.149-5.693.246-1.057-.112-2.115-.216-3.172-.328-1.395-.396-2.483-1.009-2.903-2.518-.255-.927-.938-1.742-1.425-2.608-.9-1.928-1.89-3.826-2.692-5.791-1.23-3.041-3.368-4.872-6.908-5.044-.66-.127-1.312-.262-1.972-.389l-1.216-.717c-.314-1.636-.75-3.265-.915-4.917-.195-1.95-.945-3.758-2.49-4.834-2.482-1.726-3.15-4.312-4.364-6.673-.413-1.33-1.598-1.718-2.82-1.935-1.898-.329-2.565-1.48-2.768-3.153-.645-5.455.968-10.551 2.828-15.58.375-1.016 1.335-2.077 2.325-2.6 6.592-3.49 11.01-8.728 14.085-15.117 2.497.053 4.987.157 7.477.157 392.34.008 784.68.008 1177.02.015 2.5 0 4.99.09 7.49.135-2.25 4.012-3.87 8.115-3.78 12.822.06 3.265.36 4.334 3.62 4.693 1.38.149 2.8-.135 4.21-.217 1.43.852 2.85 1.711 4.28 2.563 1.45 2.032 2.92 4.057 4.37 6.09.28 1.815.16 3.788.91 5.402 1.36 2.952 2.55 5.881 2.79 9.124.04.635.47 1.24.71 1.808.57.284 1.01.658 1.51.717 3.26.404 4.51 2.347 4.59 5.216.02.672.07 1.345.1 2.01-2.21 3.243-4.89 6.239-6.15 9.99-1.17 3.505-1.42 7.241-3.09 10.641-.42.852-.24 1.987-.25 2.996-.03 2.69.01 5.388-.02 8.078-.03 2.525.05 5.058-.19 7.569-.39 4.11-3.3 6.717-7.65 7.069-1.07.082-2.14.059-3.2.037-17.1-.403-34.17.777-51.25 1.113-.71.015-1.43.023-2.13.12-1.84.261-2.84 1.151-3.17 2.922-.21 1.158-.21 2.346-.31 3.519-.2 2.346-.35 4.7-.63 7.039-.21 1.771-1.07 3.34-2.83 4.027-2.74 1.084-4.66 2.997-6.61 4.977-1.77 1.793-3.93 3.011-6.61 2.742-4.2-.426-7.61 1.353-11 3.258-2.83 1.599-4.29 3.916-4.25 7.084.05 3.362.02 6.732-.01 10.095-.03 2.174.25 4.371-.75 6.463-.57 1.188-.2 2.346.66 3.295 1.03 1.136 2.18 2.19 3.27 3.273l.18 3.923c-1.08 1.106-2.1 2.264-3.25 3.303-2.25 2.017-2.42 4.102-1.15 6.807 2.28 4.842-.06 9.056-5.55 10.282-2.22.493-4.57.538-6.86.695-5.07.351-10.36-.837-15.1 1.898-.28.164-.69.134-1.04.164-4.43.381-8.84.874-13.28 1.084-2.29.104-4.07.822-5.73 2.256-3.32 2.862-6.14 6.053-8.28 9.804a67.734 67.734 0 0 1-4.18 6.448c-1.45 1.965-2.81 2.272-5.08 1.435-.82-.306-1.55-.897-2.39-1.098-3.17-.77-6.26-1.024-9.05 1.247-1.34 1.084-3.01 1.794-4.44 2.78-3 2.077-6.04 4.132-8.89 6.396-2.03 1.622-3.89 3.475-5.63 5.38-2.25 2.459-4.62 3.452-7.93 1.771-2.09-1.053-4.46-1.091-6.78-.545-5.45 1.285-10.28 3.833-14.575 7.121-2.872 2.204-5.235 5.006-7.822 7.547l-6.36.022c-2.948-2.563-6.623-2.503-10.095-1.943-5.79.934-11.475 2.429-16.628 5.253-3.15 1.726-5.707 4.005-7.162 7.256-.413.919-.848 1.913-1.575 2.593-2.783 2.6-5.655 5.118-8.55 7.606-2.363 2.033-5.055 3.774-7.178 6.001-3.517 3.691-7.807 6.261-12.337 8.832-.998-.538-1.898-1.039-2.805-1.517-.893-.471-1.8-.919-2.978-1.517-1.312 1.353-2.835 2.414-3.607 3.833-2.498 4.596-7.178 6.292-11.648 8.287-1.275.568-2.707.822-4.042 1.285-2.25.785-4.268 2.033-5.108 4.177-1.38 3.527-2.002 7.196-.322 10.827.915 1.988 2.055 3.879 3.097 5.814 1.455 4.319 2.603 8.757 4.433 12.934 2.647 6.068 5.67 12.001 9.84 17.321 4.222 5.395 8.527 10.737 12.622 16.222 2.078 2.78 4.365 5.298 7.2 7.383 2.453 2.406 4.808 4.909 7.395 7.18 2.115 1.854 4.575 3.236 7.71 2.369.705-.224 1.41-.448 2.123-.672 1.072-.374 2.145-.748 3.21-1.121 1.192-.322 2.362-.725 3.577-.942 2.678-.47 4.395-1.935 5.64-4.184 1.56-2.825 3.338-5.545 5.048-8.294.802-1.286 2.28-1.801 3.675-1.106 1.072.53 2.025 1.322 2.932 2.092 1.193 1.009 2.19 2.242 3.458 3.146 2.992 2.152 5.565 1.771 7.807-1.016.428-.538.728-1.166 1.17-1.697 2.663-3.22 6.045-5.185 10.485-5.193 6.6-.015 13.19 0 19.79-.015 1.64 0 3.14.277 4.58 1.114 1.03.597 2.28.844 3.43 1.24 2.21 1.233 4.14 2.757 5.58 4.79.24 1.33.48 2.667.73 3.997-.34.673-.69 1.353-1.03 2.025-2.34 2.929-4.69 5.791-8.22 7.652-1.68.889-2.72 2.533-3.5 4.304-1.21 2.735-.7 5.283.68 7.719.93 1.651 1.71 3.273 1.75 5.185.08 3.131-.97 4.768-4.06 5.642-1.68.478-3.45.747-5.21.912-1.87.179-3.38.814-4.57 2.211-.67.777-1.38 1.555-2.22 2.152-2.09 1.495-4.392 2.137-6.965 1.121-.982-.388-1.92-.889-2.932-1.173-1.898-.538-3.848-.65-5.738.067-2.767 1.054-5.512 2.16-8.265 3.236-1.725.493-3.442.979-5.167 1.472-1.815-1.323-3.638-2.645-5.453-3.968-1.597-1.995-3.397-3.714-6.157-4.177-2.003-2.234-4.2-4.184-7.523-4.409-6.675-1.12-10.222.673-11.467 6.486-.848 3.938-3.083 6.718-6.225 9.049-2.52 1.868-5.235 3.422-8.31 4.454-3.083 1.031-4.943 3.175-5.348 6.336-.195 1.495-.48 2.982-.727 4.476-1.478 1.367-2.963 2.727-4.44 4.095l-4.118-.538c-1.59-1.457-2.88-3.363-5.505-3.258-.712.239-1.417.486-2.13.725l-3.217.874c-.353-.038-.713-.067-1.065-.105-5.063-.612-9.51.299-13.035 4.162-.863.949-2.325 1.652-3.645 1.943-3.473.77-6.083 2.623-8.4 5.051-1.545 1.622-3.225 3.146-4.928 4.618-2.347 2.025-3.892 4.513-3.99 7.457-.105 3.251-1.935 4.925-4.86 5.866-3.375 1.091-5.775 3.161-7.552 6.045-2.115 3.422-5.235 5.903-8.828 7.883-1.995 1.099-3.99 2.19-5.985 3.281-3.72 1.457-7.695 1.083-11.565 1.472-1.065.022-2.137.052-3.202.074a1.17 1.17 0 0 0-1.035.053c-.735.007-1.47.022-2.205.03l-1.065-.045c-4.763-1.211-8.415-4.058-11.918-7.151-1.522-1.345-2.685-3.124-4.552-3.706-1.815.261-3.368.485-4.92.71-2.153-1.323-4.313-2.638-6.465-3.961-1.133-1.875-2.543-3.654-3.338-5.656-1.245-3.131-.12-5.634 2.97-7.174 1.395-.695 2.993-1.008 4.493-1.524 1.965-.68 2.557-1.405 2.512-3.355-.045-2.346-.247-4.693-.3-7.039-.09-3.96.72-7.584 3.555-10.782 1.313-1.487 1.935-3.557 2.685-5.425.188-.471-.307-1.196-.495-1.801-.742-1.666-1.485-3.295-1.5-5.186-.007-.934-.555-1.875-.855-2.809.135-1.995-.78-3.617-2.04-5.111-1.68-4.551-5.362-7.144-9.802-9.034-1.71-.725-3.225-.785-4.958.127-1.8.949-3.825 1.532-5.752 2.272-1.065-.06-2.13-.113-3.195-.172-.3-.21-.63-.269-.99-.172-2.79-1.27-5.093-3.011-6.638-5.627-.39-.665-1.312-1.046-1.995-1.561-.69-.374-1.372-.748-2.062-1.114-.345-.284-.698-.56-1.043-.844-.18-.456-.217-1.054-.547-1.345-4.71-4.028-9.825-6.972-16.613-6.598-3.262.179-6.247.448-9.052 2.227-1.41.896-3.225 1.218-4.86 1.8-.743-.015-1.485-.022-2.228-.037l-6.435-3.026c-.18-.284-.337-.591-.547-.86-4.32-5.619-3.998-10.954 1.207-15.736 3.713-3.415 8.018-6.142 12.623-8.369 1.942-.941 3.502-2.152 5.062-3.572 2.295-2.077 4.913-3.848 7.418-5.716 3.067-2.279 6.172-4.506 9.232-6.792.833-.62 1.545-1.39 2.31-2.092 3.158-2.9 6.803-4.857 11.295-5.126 4.958-.299 9.27-1.988 13.14-4.954 1.748-1.338 3.878-2.235 5.835-3.326 2.468-.777 4.928-1.546 7.395-2.323a443.94 443.94 0 0 1 3.255-.105c.645.03 1.403.291 1.913.052 1.08-.5.285-.844-.285-1.121-.555-.926-1.103-1.853-1.658-2.779l-.09-1.031c.015-1.338.03-2.683.038-4.02.277-2.743.63-5.507-1.598-7.884-2.73.314-4.41 1.891-5.91 3.729-1.747.06-3.487.127-5.235.172-2.062.052-3.735-.71-5.062-2.182l-1.695-1.89c-.525-.643-.915-1.495-1.598-1.884-1.807-1.038-3.735-1.89-5.625-2.787-.465-.224-1.012-.523-1.485-.485-4.357.403-8.94-.523-12.945 2.047-2.28 1.465-4.912 1.868-7.635 1.846-2.85-.023-5.692.015-8.542-.008-2.858-.03-5.663-.06-8.25 1.495-.998.597-2.348.792-3.563.911-4.065.396-8.137.673-12.21 1.002l-7.38-.471c-2.872-1.233-5.737-2.466-8.61-3.699-.63-3.415-2.985-5.305-6.405-5.828-3.66-.561-6.637-2.078-9.375-4.386-2.46-2.07-5.46-3.072-8.827-2.795l-1.118-.045c-.72-.007-1.432-.007-2.152-.015l-6.24-.493c-1.253-1.136-2.678-2.152-3.735-3.43-1.965-2.376-.893-4.849 2.212-5.507 1.17-.246 2.325-.583 3.488-.882l6.345-1.703c2.902.254 3.847-.067 4.23-1.435.375-1.315-.21-2.854-1.86-3.691-1.32-.665-2.888-.874-4.35-1.293-1.335-.321-2.655-.762-4.005-.926-2.513-.314-3.705-1.652-3.9-3.946l.36-4.072c.36-.755.855-1.48 1.065-2.264.39-1.487.052-1.958-1.665-2.578-.48-.172-1.043-.15-1.568-.209-3.03-2.952-6.555-3.789-10.702-2.391-.99.336-2.093.358-3.15.515-1.575.239-3.188.762-4.725.62-1.688-.157-3.315-.941-4.868-1.427-4.05 2.728-5.595 3.251-9.96 2.615-1.687-.246-3.27-1.173-4.882-1.83-1.305-.538-2.648-1.398-4.05-.733-3.338 1.592-6.683 3.027-10.53 3.087-.645.007-1.373.448-1.89.874-1.89 1.554-4.103 1.875-6.488 1.756a12.62 12.62 0 0 0-2.13.067c-2.25.261-3.127 1.128-3.165 3.288-.045 2.69.105 5.38.008 8.062-.098 2.586-.908 4.857-3.188 6.643-2.932 2.302-4.785 5.373-6.03 8.78-.405 1.098-.787 2.286-1.537 3.168-1.365 1.599-2.115 3.46-3.135 5.208-2.363 4.035-5.333 7.615-10.838 7.981-.502.03-.99.269-1.395.388-.15.247-.307.381-.322.531-.098.829-.255 1.659-.218 2.488.218 4.872-1.762 8.735-5.542 12.038-4.568 3.997-8.895 8.242-13.32 12.389-4.568 4.281-4.568 4.281-10.463 1.778-1.987.665-4.012 1.255-5.955 2.04-.757.306-1.665.941-1.905 1.621-1.402 3.946-4.957 6.83-5.647 11.231-.465 2.944-3.69 4.521-6.96 4.312-1.223-.075-2.415-.486-3.623-.748-2.205-.485-4.402-.978-6.427-1.434-1.553 1.666-1.208 3.093-.39 4.491.795 1.352 1.267 2.719 1.192 4.311-.307 6.426 1.11 5.963 6.615 6.576 4.38 5.589 4.688 11.537 1.86 17.821-.885 1.973-1.507 4.05-2.25 6.082l-3.232 3.064c-1.29.246-2.573.493-3.863.74-2.37-.792-2.16-2.743-2.287-4.551 1.365-2.01 1.38-4.027.067-6.067-.63-2.743-1.687-5.268-4.072-7.114-.188-.276-.308-.672-.57-.814-4.223-2.197-8.505-4.17-13.575-3.468-1.035.142-2.123-.015-3.188-.059-4.23-.18-8.115.687-11.415 3.332-1.522 1.226-3.397 1.592-5.19 2.264-4.185 1.577-8.797 2.773-10.86 7.375-.81 1.801-2.595 2.093-4.492 1.106-1.395-.724-2.64-1.703-4.013-2.466-1.215-.68-2.452-.171-2.977 1.129-.188.463-.39.949-.435 1.442-.293 3.191-2.385 4.693-5.46 5.305-5.333-.157-10.185-1.823-14.43-4.752-2.753-1.898-5.625-2.787-8.94-2.705-1.853-1.173-3.743-2.294-5.535-3.542-1.095-.762-2.063-1.696-3.008-2.63-.817-.815-1.522-1.726-2.28-2.6-1.147-2.952-1.89-5.978-4.2-8.534-1.875-2.084-.922-5.791 1.41-7.763 1.89-1.599 4.11-2.765 6.69-2.825 4.223-.097 8.498-.687 12.713.83 1.987-1.831 1.792-3.976 1.41-6.143-.083-.485-.398-.926-.593-1.397-2.302-5.485-1.71-7.629 3.278-11.223 1.552-1.121 3.27-2.033 4.837-3.124 1.283-.889 2.678-1.741 3.63-2.899 1.223-1.494 2.565-2.697 4.29-3.661 2.168-1.218 3.045-3.168 2.708-5.56-.045-.336-.128-.665-.128-1.001-.052-6.463 1.485-7.913 7.74-8.406 2.355-.187 4.605-.486 6.218-2.361.817-.957 1.365-1.958.915-3.236-.225-.635-.465-1.278-.593-1.928-.442-2.294.053-4.296 1.928-5.962 1.537-1.36 3.202-2.646 4.207-4.745-1.777-1.644-3.51-3.251-5.25-4.857-.18-2.84-.405-5.672-.63-8.496Zm375.353 19.54c.742.926 1.635 1.778 2.197 2.787 1.403 2.511 3.555 3.542 6.488 3.437 4.26-.157 8.43.142 11.88 2.488 1.987-.777 2.58-2.204 2.782-3.698.308-2.324.653-4.588 1.898-6.696.66-1.113 0-1.965-1.635-2.51-.488-.165-1.043-.127-1.568-.187-2.182-1.704-4.23-3.594-7.005-4.483-2.857-.912-5.73-1.794-8.572-2.765-1.298-.448-2.423-.336-3.495.448-.84.62-1.643 1.285-2.513 1.861-2.182 1.449-4.867 2.092-7.08.994-4.245-2.1-8.107-1.831-12.142.186-.758.374-1.74.314-2.573.598-.45.15-.78.605-1.215.957.188.515.233 1.098.555 1.404.615.583 1.425.987 2.108 1.517 5.325 4.192 4.327 3.609 9.945 2.802 3.33-.47 6.735-.545 9.945.86Zm39.495 9.542c.06 0 .12 0 .18.007 0 1.345-.113 2.698.03 4.028.157 1.539 1.215 2.256 2.947 2.249.173 0 .353-.067.525-.075 3.143-.134 3.128-.134 4.065 2.989.188.635.428 1.3.84 1.808.27.329.938.576 1.358.508.412-.067.802-.545 1.095-.919.195-.246.307-.642.277-.956-.247-2.675-.48-5.358-.84-8.025-.082-.613-.495-1.33-.997-1.726a160.95 160.95 0 0 0-6.698-4.984c-.892-.635-2.287-.015-2.452 1.076-.203 1.33-.225 2.682-.33 4.02Zm36.945 46.283c-2.1 2.548-1.973 5.245-1.245 7.846.33 1.173 1.342 2.488 2.445 3.093 2.572 1.427 5.355 2.518 8.115 3.609.472.187 1.425-.164 1.845-.568.412-.388.765-1.292.562-1.733-.547-1.203-1.312-2.354-2.16-3.4-1.612-1.98-3.33-3.886-5.047-5.784-1.14-1.248-2.228-2.6-4.515-3.063Zm-347.94-65.181c.135-.605.375-1.016.247-1.188-2.107-2.876-4.777-5.372-6.285-8.69-.367-.814-1.98-1.382-3.112-1.576-1.508-.262-2.685.642-3.48 1.875-.585.904-.285 2.018.892 3.138.495.471 1.02.957 1.62 1.301a372.643 372.643 0 0 0 8.28 4.558c.533.284 1.193.381 1.838.582Zm120.18-34.26c-1.778-3.743-2.565-4.505-5.963-5.731-1.17 1.338-2.452 2.675-3.592 4.117-1.013 1.278-.21 2.698 1.537 2.698 2.273 0 4.553-.112 6.818-.277.427-.03.817-.538 1.2-.807Zm13.2.897c-.008.06-.008.127-.015.187-1.058 0-2.153-.165-3.15.052-.765.172-1.718.695-2.018 1.308-.405.829.345 1.502 1.253 1.853.652.246 1.342.463 1.912.837 2.963 1.92 4.56.852 6.54-.889.435-.381.81-1.233.66-1.704-.165-.501-.93-1.016-1.537-1.166-1.178-.299-2.423-.336-3.645-.478Zm198.832 76.949c-1.305-3.915-1.507-4.566-3.03-5.119-1.417-.515-3.022-.687-4.56-.769-.487-.03-1.312.635-1.462 1.121-.15.485.165 1.442.6 1.688 1.935 1.121 3.967 2.122 6.022 3.042.54.239 1.29.037 2.43.037Zm-36.127-20.549c-.42.12-.803.135-1.05.314-1.148.83-1.11 1.995-.848 3.153.27 1.181 1.275 1.854 2.715 1.906 1.11.045 2.093-.239 2.678-1.211.157-.261.247-.687.127-.934-.742-1.561-1.912-2.727-3.622-3.228Zm16.935-18.718c-1.98.045-3.218.434-4.215 1.39-.195.187-.315.718-.188.867.3.336.795.785 1.17.747 1.545-.134 2.378-1.158 3.233-3.004Z" fill="#FFD500"/><path d="M1211.59 322.762c-2.5-.045-4.99-.134-7.48-.134-392.345-.008-784.685-.008-1177.025-.015-2.49 0-4.988-.105-7.477-.157.345-4.79 1.627-9.198 5.715-12.464.262-.209.517-.523.585-.829 1.267-5.612 6.577-8.563 9.562-13.039.368-.553.953-.994 1.485-1.435 2.587-2.144 4.672-2.227 7.635-.306.427.276.81.627 1.207.941 2.468 2.75 5.85 3.131 9.136 3.445 1.402-1.465 1.117-2.772.03-3.744-.983-.881-2.318-1.404-3.495-2.084-.63-.755-1.268-1.51-1.898-2.264-.48-1.263-1.133-2.504-1.373-3.804-.165-.919.045-1.995.405-2.892 1.448-3.594 3.023-7.143 4.516-10.64-2.626-4.132-2.183-8.623-2.753-12.912-.247-1.861-.308-3.661-1.575-5.223-1.148-1.42-.803-2.832.165-4.207 1.087-1.539 2.153-3.086 3.255-4.618a108.243 108.243 0 0 1 2.737-3.654c.953-1.21 1.853-2.48 2.978-3.541a21456.638 21456.638 0 0 1 42.863-40.253c1.755-1.644 3.307-3.497 5.835-4.304.915-.292 1.665-1.226 2.355-1.98 2.115-2.339 4.672-4.17 7.485-5.649 4.575-2.399 8.625-5.366 11.917-9.229 1.14-1.345 2.498-2.391 4.298-2.847.682-.171 1.47-.269 1.987-.665 2.618-2.01 5.58-2.129 8.61-1.36 2.535.643 4.568-.328 5.303-2.256 1.59-4.2 4.71-7.002 8.512-9.438-.877-7.053-2.602-13.636-6.525-19.614-1.972-3.011-1.23-6 1.853-8.287.825-.613 1.545-1.337 2.527-2.197-.577-1.106-1.035-2.159-1.65-3.131-1.545-2.458-3.345-4.797-3.615-7.786-.015-.164-.037-.358-.135-.485-3.217-3.983-3.09-8.84-3.967-13.435.427-2.01-.173-3.542-2.28-4.379-.548-.419-1.058-.897-1.65-1.255-3.368-2.048-5.573-4.67-5.153-8.728.165-1.621-.742-2.9-1.77-4.102-1.8-2.1-1.89-4.282-.27-6.501 2.985-4.095 2.738-8.227.075-12.322-1.65-2.533-1.642-5.11-.547-7.749a52.16 52.16 0 0 1 2.655-5.499c.892-1.592 2.422-2.488 4.35-2.518 3.562-.053 7.132-.045 10.695-.008 2.062.023 3.705 1.091 5.347 2.115 4.86 3.026 4.56 2.907 9.413-.097.892-.553 1.77-1.158 2.737-1.577 5.648-2.436 9.24-6.665 11.775-11.85.525-1.07 1.005-2.16 1.635-3.169 2.318-3.751 5.445-6.03 10.41-5.664 4.433.329 8.895.306 13.35.351 7.485.075 14.978.098 22.463.112 2.002 0 3.742-.792 5.572-1.524 5.303-2.144 10.628-2.66 15.653.86 3.427 2.398 7.312 3.332 11.557 3.257 4.815-.082 9.63.023 14.445.008 3.225-.008 6.413.142 9.465 1.255 1.193 1.397 2.783 2.018 4.643 2.062 1.417.038 2.842.12 4.26.03 3.202-.187 6.015.598 8.122 2.944 2.558 2.84 5.895 3.52 9.585 3.393 1.418-.045 2.835-.165 4.253-.142 1.815.022 3.622.41 4.89 1.659 2.43 2.39 5.407 3.093 8.73 2.869 2.767-.187 5.19.605 7.612 1.8 3.773 1.861 7.613 3.61 11.513 5.216 1.747.718 3.705 1.233 5.595 1.353 2.632.172 5.302-.112 7.957-.194l3.195.179c1.245.814 2.228 1.83 2.76 3.198.27 1.285.533 2.57.803 3.856.097 1.352 1.132 2.01 2.22 2.555 1.627.815 2.677 1.86 3.172 3.684.653 2.413 1.62 2.877 4.155 2.854 1.965-.022 3.87-.224 5.175-1.883l3.113-1.188c.727-.052 1.462-.112 2.19-.164 1.2.172 2.392.344 3.592.508 2.573.351 5.1.687 6.893 2.84.472.567 1.522.702 2.31 1.038 1.972 1.069 1.972 1.069 4.305-.941.855-.217 1.725-.397 2.572-.658 1.68-.516 3.195-.052 4.56.8 1.035.642 1.875 1.554 2.888 2.234 3.735 2.488 7.447 1.853 10.147-1.674 2.303-3.004 2.303-3.004 7.808-5.783 2.025.141 2.76 1.965 4.177 2.899.285 1.487.533 2.974.87 4.453.533 2.294 2.265 3.392 4.725 2.937 1.215-.224 2.378-.733 3.593-.98 3.57-.717 6.592.688 9.652 2.183 2.445 1.195 2.693 3.362 3.248 5.462-.78 2.286-.263 4.214 1.755 5.91 2.347-1.053 4.56-2.017 4.837-4.79 1.013-2.443 2.918-4.191 5.018-5.798 3.592-.523 6.742-2.01 9.712-3.908.735-.47 1.44-.978 2.183-1.442 3.322-2.092 6.615-2.144 9.862.15.428.299.863.582 1.29.874 1.688 2.735 3.375 5.477 5.055 8.212.113 2.174.308 4.349.308 6.516 0 2.1.802 3.93 1.83 5.701 1.11 1.913 2.992 2.488 4.882 1.39 1.793-1.046 3.458-2.28 5.183-3.43 1.785-1.166 3.57-2.339 5.355-3.504 1.05-1.682 3.112-2.048 4.65-3.109 1.935-1.337 4.042-1.053 5.865.449 1.86 1.531 3.675 3.115 5.355 4.55 3.18.142 4.972-2.324 7.567-2.772 2.43-.419 4.92-.516 7.388-.755 1.065.89 2.13.89 3.202 0 3.248.045 6.533-.21 9.668.934 2.895 2.675 5.79 5.358 8.692 8.033.855 1.636 2.003 3.101 2.138 5.088.142 2.152 1.65 3.692 3.517 4.813 1.073.65 2.333.978 3.563.388 2.272-1.091 4.312-2.406 4.357-5.186-.007-.964.218-1.987-.075-2.869-.922-2.772-2.032-5.485-3.075-8.22-.367-3.16-.825-6.32-1.087-9.497-.368-4.326.622-8.264 3.54-11.813 2.415-2.937 4.035-6.307 4.072-10.185.015-2.301 1.215-4.207 2.678-5.918 2.677-3.123 5.685-5.985 7.845-9.52.765-1.255 2.227-2.144 3.412-3.16 1.77-1.517 3.098-3.236 3.135-5.612.038-2.241 1.298-3.766 3.248-4.88 1.665-.948 3.322-1.897 5.062-2.891 3.698 1.435 7.35 2.623 11.325 2.824 2.1.105 3.758-.209 5.378-1.509 2.715-2.182 5.572-4.214 9.329-4.52 1.058.859 2.116.904 3.196.03.862.186 1.77.268 2.572.59 3.863 1.546 7.868 1.718 12.015 1.643 3.525-.06 7.065.509 10.583.905 1.837.209 3.397 1.001 4.17 2.742.982 2.227 3.022 2.682 5.235 2.772 2.557.105 4.919-.605 7.087-1.853 1.058-.605 1.928-1.614 3.053-2.002 4.417-1.54 5.985-4.775 6.322-8.862.15-1.854.705-3.58 1.538-5.29.652-1.33.825-2.885 1.132-4.357.345-1.63.6-3.28.945-5.2 1.478-.315 2.805-.823 4.147-.838 4.651-.03 9.256.232 13.283 2.884.713.471 1.613.695 2.423 1.032 2.092 1.569 4.432 2.271 7.102 1.838 4.215.83 8.048.15 11.625-2.25 3.623-2.428 7.605-4.348 10.8-7.367 1.86-1.763 4.365-2.22 6.908-2.22 3.734-.007 7.47.15 11.205.09 2.647-.044 4.897.59 6.735 2.451.472.479 1.102.822 1.582 1.174 2.265.284 3.833-.95 5.58-1.712 2.085-.911 4.215-1.733 6.323-2.6 1.822.105 3.645.21 5.467.321l2.227 1.614c1.245 1.443 2.498 2.885 3.743 4.327.398.627.788 1.255 1.185 1.883l1.373 2.981c.66 3.266 2.902 4.842 6.254 5.253 1.695 1.442 3.391 2.885 5.086 4.334 1.102.942 1.71 2.107 1.74 3.52-1.62 2.047-3.263 4.214-2.183 6.889 1.26 3.116 2.775 6.157 4.388 9.123.802 1.473 2.055 2.735 3.914 3.191 1.433.927 2.865 1.853 4.298 2.772 2.76 2.264 5.512 4.536 8.288 6.785 1.815 1.472 2.805 3.318 2.917 5.582-.067.157-.157.306-.195.47-1.312 6.023-.067 7.884-9.592 8.848-3.128.314-6.135 1.494-7.845 4.393.36.598.57 1.076.892 1.45 4.433 5.103 7.695 10.499 5.663 17.522-.653 2.25.27 4.23 2.047 5.948 1.455 1.413 3.405 2.511 3.945 4.543-.022.269-.007.441-.06.598-1.23 3.714-.99 4.072 2.895 4.237.525.022 1.065-.075 1.59-.112 2.205.463 4.403.919 6.608 1.382 1.89.448 3.825.77 5.655 1.375 1.642.546 3.532 1.069 4.665 2.189 1.702 1.689 3.622 1.958 5.775 1.913 1.762-.037 3.517-.201 5.28-.306 1.335-.389 2.812-.56 3.99-1.211 4.897-2.69 9.795-2.652 14.79-.366 1.252 1.951 2.512 3.901 3.765 5.851.172 5.858 1.724 7.584 7.522 8.294 1.402.172 2.828.217 4.245.322.773.829 1.545 1.651 2.31 2.48-.15.919-.307 1.846-.457 2.765-1.59 1.263-1.755 2.69-.878 4.453.818 1.652 1.703 3.385 1.927 5.156.285 2.294 1.381 4.058 2.701 5.873 2.1 2.885 4.177 5.814 5.932 8.892 1.71 2.982 1.927 6.128-.75 8.855-1.2 1.225-1.44 2.623-1.395 4.162.045 1.338-.007 2.683.173 4.005.397 2.937 1.694 5.395 4.409 7.106 1.755 1.106 3.39 2.384 5.078 3.579 1.065 1.704 2.1 3.423 3.21 5.096 1.778 2.698 2.625 2.765 5.708.561 1.725-1.517 3.457-3.026 5.182-4.543 5.52-3.056 5.52-2.974 12.502-3.094 4.515-.074 8.895.165 12.93 2.324 1.838 2.182 3.676 4.364 5.513 6.538.015 1.682 1.327 2.608 2.393 3.684 1.635 1.659 3.322 1.539 5.054.142l7.613-1.233c1.358.934 2.723 1.861 4.08 2.795.653 2.017 1.2 4.124 4.32 4.588 1.493-1.928 3.008-3.878 4.523-5.836 3.247-.067 5.925-1.532 7.882-3.714 2.813-3.123 6.92-3.953 10.39-5.873.79-.433 2.09-.299 3.06-.06 1.18.284 2.25.957 3.4 1.472 5.5-1.711 10.4-4.236 14.13-8.503 2.63-3.004 6.08-3.475 9.66-2.369 1.74.538 3.14 2.063 4.7 3.139.35 3.272 2.11 5.454 5.5 6.433 2.07.598 3.59 1.935 4.92 3.49.51 3.796 1.18 7.502 3.88 10.625 2.54 2.929 4.81 6.053 7.29 9.019 1.07 1.27 2.6 1.607 4.29 1.218 3.66.957 6.67 2.787 9.09 5.619 1.31 1.525 2.95 2.87 4.65 3.998 2.22 1.472 5.92 1.405 7.42-.008 1.93-1.8 1.57-3.885.5-5.962-.08-.15-.19-.277-.28-.419 1.79-6.254 6.76-8.204 12.4-4.834.89.53 1.69 1.195 2.53 1.8 1.87 3.094 4.65 4.349 8.43 4.088 2.83-.195 5.7.082 8.55.052 2.64-.03 4.89.62 6.61 2.63a8.917 8.917 0 0 0 5.4 3.041c3.83.598 7.2 1.831 9.79 4.656.22.246.58.396.89.553 2.96 1.531 5.87.777 7.71-2.033.36-.56.58-1.21.87-1.823 1.18-.942 2.33-1.935 3.57-2.81 1.53-1.091 2.65-1.053 4.23.105 1.23.897 2.39 1.875 3.57 2.824.55 1.218 1.09 2.436 1.65 3.647 2.04 4.416 4.07 5.507 9 5.044 2.96-.284 5.94-.426 8.91-.635 2.46 1.061 5.42.956 7.55 2.817.73 1.681 1.38 3.399 2.22 5.021 1.28 2.481 3.28 4.222 6.17 5.021 1.83.501 3.64 1.114 5.39 1.816 1.62.643 3.09.568 4.41-.508.79-.635 1.45-1.405 2.17-2.115.34-.351.68-.695 1.02-1.046.68-.508 1.31-1.076 2.03-1.517 4.58-2.764 9.21-3.654 13.94-.276.51.919 1.04 1.845 1.56 2.764-.29 1.719-.2 3.55-1.57 4.97-2.13 1.24-3.7 2.951-4.99 5.051.27.65.4 1.337.8 1.838 1.57 1.988 3.09 4.02 4.85 5.843 3.11 3.198 4.99 6.77 4.84 11.194-.04 1.158.1 2.316.17 3.474-.84 1.838-1.52 3.759-2.56 5.492-1.4 2.332-3 4.566-4.65 6.74-1.68 2.204-3.16 4.439-3.6 7.188-.33 2.078-1.9 3.139-3.9 3.699-.84.239-1.78.209-2.6.501-2.48.889-4.96 1.801-7.36 2.862-1.3.575-1.77 1.95-1.16 2.974 1.23 2.069 2.78 3.848 5.13 4.939 2.06.956 3.78.149 5.56-.613.96.351 1.95.628 2.86 1.061 2.4 1.136 4.62.949 6.72-.642 2-.396 3.86-.24 5.42 1.18.16.665.31 1.33.47 2.003-.4 1.666-.81 3.332-1.21 4.999-1.76 1.651-3.05 3.84-5.75 4.378-1.93-.097-3.87-.209-5.81-.284-2.95-.082-5.61.643-7.9 2.436Z" fill="#005BBB"/></svg>