<svg width="1235" height="791" viewBox="0 0 1235 791" fill="none" xmlns="http://www.w3.org/2000/svg">
<path d="M461.38 598.204C461.89 597.3 462.19 596.403 461.748 595.349C461.29 594.273 460.878 593.16 460.623 592.024C459.955 589.058 460.675 586.42 462.955 584.231C464.313 582.923 465.648 581.586 467.095 580.375C467.86 579.733 468.805 579.045 469.765 578.881C472.45 578.425 474.7 577.244 476.935 575.854C479.508 574.255 481.863 573.605 484.458 576.385C484.795 576.751 485.283 576.998 485.695 577.297C486.49 579.12 487.293 580.943 488.163 582.938C490.653 582.4 492.888 581.855 495.048 583.267C495.61 583.633 496.825 583.431 497.575 583.125C498.7 582.669 499.675 581.885 500.718 581.242C502.6 581.197 504.16 581.795 505.375 583.207C506.155 584.111 507.055 584.918 507.91 585.77C509.013 587.69 510.88 588.408 513.04 588.542C515.013 588.662 516.243 587.563 517.128 586.032C520.653 584.47 524.058 584.522 527.32 586.674C528.258 588.475 529.165 590.5 531.543 590.747C534.85 591.09 538.195 591.113 541.533 591.172C542.38 591.187 543.265 590.836 543.22 589.439C541.998 588.804 540.595 588.191 539.328 587.399C537.873 586.487 536.538 585.404 535.12 584.44C534.865 584.268 534.438 584.328 534.093 584.283C533.598 583.244 533.148 582.183 532.593 581.175C531.693 579.546 531.678 577.82 532.878 576.505C535.3 573.852 535.165 570.743 535.21 567.613C535.218 566.791 535.143 565.969 535.105 565.147C535.008 562.8 534.91 560.447 534.82 558.1C535.143 555.986 534.085 554.2 533.178 552.429C532.308 550.74 530.853 549.59 528.895 548.954C525.918 547.983 522.993 546.862 520.045 545.801C518.245 543.201 515.47 541.818 512.65 540.496C511.848 539.622 511.075 538.732 510.243 537.888C508.87 536.491 508.69 534.989 509.695 533.345C509.958 532.912 510.258 532.501 510.475 532.052C511.713 529.467 511.42 528.219 509.17 526.403C508.908 526.187 508.615 525.992 508.308 525.835C505.233 524.244 504.513 521.711 505.068 518.655C506.493 516.854 508.008 515.09 507.745 512.624C507.94 510.487 508.263 508.35 508.27 506.213C508.27 505.384 507.55 504.554 507.145 503.71C504.498 504.151 502.698 505.533 500.725 506.542C497.05 505.347 495.348 502.679 494.193 499.324C492.4 494.101 489.07 490.32 482.665 490.111C482.32 490.096 481.983 489.976 481.638 489.901C477.678 485.732 477.985 480.681 478.398 475.637C478.458 474.875 479.08 474.143 479.485 473.418C480.558 471.512 481.653 469.614 482.763 467.672C481.075 464.556 481.6 461.739 483.663 459.116C484.675 458.555 484.893 457.607 484.825 456.658C484.713 455.081 484.443 453.512 484.233 451.943C484.345 450.575 484.45 449.2 484.563 447.833C484.735 447.377 485.095 446.891 485.035 446.465C484.585 443.2 482.545 440.271 478.99 437.857C477.685 439.083 476.335 440.361 474.978 441.638C473.088 442.057 471.528 441.623 470.23 440.196C469.795 439.711 469.105 439.434 468.528 439.068C466.51 437.245 464.485 435.422 462.468 433.598C461.035 431.573 459.61 429.556 458.178 427.531C458.065 423.391 455.665 421.112 451.533 420.275C449.988 419.961 448.435 419.58 446.875 419.476C441.423 419.117 441.085 419.296 437.538 423.421C437.208 423.802 436.968 424.251 436.683 424.669C435.565 424.811 434.455 424.945 433.338 425.087C432.73 424.549 432.123 424.004 431.515 423.466C430.99 422.637 430.518 421.77 429.918 420.985C429.16 419.991 428.155 419.453 426.798 419.887C425.86 419.745 424.915 419.595 423.978 419.453C423.835 418.474 423.693 417.503 423.55 416.524C424.458 415.508 425.5 414.567 426.25 413.453C427.27 411.944 426.408 410.494 424.45 410.188C423.925 410.106 423.393 410.076 422.86 410.068C420.19 410.023 417.565 410.016 415.135 408.596C413.973 407.916 412.735 408.536 411.828 409.493C411.048 409.164 410.26 408.835 409.48 408.499C408.873 406.766 408.265 405.039 407.658 403.306C407.328 402.962 406.998 402.611 406.66 402.267C404.673 401.662 402.663 401.094 400.69 400.429C398.755 399.772 396.58 399.42 395.598 397.343C394.503 395.998 393.408 394.653 392.313 393.301C388.398 388.242 385.06 387.031 379.075 388.623C377.193 389.124 375.37 389.833 373.54 390.484C369.985 391.739 366.588 391.746 363.378 389.557C362.673 389.079 361.818 388.795 361.218 388.511C358.698 388.765 356.988 389.96 355.525 391.477C354.093 392.957 352.323 393.51 350.275 393.562C347.763 393.629 345.37 393.585 343.158 392.03C341.133 390.611 338.808 390.767 336.603 391.948C335.98 392.277 335.365 392.613 334.735 392.934C332.56 394.04 330.393 394.227 328.09 393.174C327.04 392.695 325.833 392.509 324.933 392.254C324.333 392.733 323.958 392.89 323.808 393.166C322.315 395.901 320.058 397.537 316.743 397.903C315.295 398.06 313.93 398.725 313.27 400.026C311.92 402.678 309.528 403.388 306.7 403.605C304.585 403.769 302.478 404.105 300.37 404.419C299.335 404.576 298.293 404.785 297.288 405.084C295.608 405.585 293.98 406.242 292.293 406.713C290.59 407.184 289.555 408.14 289.083 409.754C288.655 411.197 288.318 412.728 287.538 413.999C285.835 416.756 283.923 419.409 282.003 422.039C280.428 424.206 278.23 425.625 275.47 426.096C273.723 426.395 271.945 426.642 270.183 426.686C265.908 426.791 261.625 426.799 257.35 426.784C255.528 426.776 253.803 426.955 252.235 427.919C250.045 429.272 247.593 429.481 245.058 429.466C238.285 429.429 231.505 429.444 224.733 429.436C222.948 429.436 221.17 429.399 219.385 429.399C215.538 429.384 212.515 430.976 210.16 433.748C209.155 434.928 208.323 436.228 207.378 437.446C204.79 440.764 201.625 443.402 197.47 444.874C196.825 445.105 196.248 445.516 195.64 445.838C193.863 446.159 192.085 446.473 190.308 446.794C188.935 446.682 187.555 446.57 186.183 446.458C183.963 445.815 182.425 444.299 180.925 442.737C180.79 442.408 180.655 442.079 180.52 441.75C180.25 441.257 179.988 440.772 179.718 440.278L179.823 440.002L179.613 439.785C178.645 436.692 176.493 434.809 173.17 434.106C172.248 433.576 171.333 433.045 170.41 432.515C169.915 431.902 169.42 431.297 168.925 430.684C169.098 429.003 168.07 427.77 167.17 426.492C166.248 423.541 164.215 421.351 161.095 420.828C156.783 420.111 152.305 419.819 148.128 421.561C146.125 422.397 144.16 422.749 142.008 422.689C140.613 422.651 139.21 422.846 137.815 422.935C135.7 422.711 133.555 422.607 131.665 421.508C127.465 418.557 122.98 416.487 117.52 417.443C115.33 416.778 113.088 416.225 110.958 415.426C107.493 414.126 104.058 412.743 100.683 411.256C97.5326 409.867 94.3151 409.239 90.8501 409.627C87.0251 410.053 83.425 409.366 80.1476 407.386C73.51 400.638 72.3775 399.757 68.6425 398.591C67.3601 399.809 65.95 401.072 64.63 402.417C63.3475 403.732 61.8701 404.404 59.9276 404.345C58.3751 404.3 56.6875 404.016 55.42 405.301C52.9225 405.846 51.4 407.513 50.0725 409.411C49.6975 409.672 49.3225 409.934 48.9475 410.195C47.2975 410.27 45.61 410.688 44.0275 409.672C43.8025 408.596 43.57 407.505 43.3375 406.422C43.345 405.413 43.3601 404.412 43.3675 403.403C43.4801 401.767 43.6976 400.138 43.6825 398.501C43.6525 395.587 42.8125 394.668 39.6925 394.444C37.81 394.309 35.8975 394.593 34 394.69C32.9425 394.578 31.885 394.474 30.8275 394.362C29.4325 393.966 28.345 393.353 27.925 391.844C27.67 390.917 26.9875 390.102 26.5 389.236C25.6 387.308 24.61 385.41 23.8075 383.445C22.5775 380.404 20.44 378.573 16.9 378.401C16.24 378.274 15.5876 378.139 14.9276 378.012C14.5226 377.773 14.1175 377.534 13.7125 377.295C13.3975 375.659 12.9625 374.03 12.7975 372.378C12.6025 370.428 11.8525 368.62 10.3075 367.544C7.82505 365.818 7.15754 363.232 5.94254 360.871C5.53004 359.541 4.34505 359.153 3.12255 358.936C1.22505 358.607 0.557544 357.456 0.355044 355.783C-0.289956 350.328 1.32255 345.232 3.18255 340.203C3.55755 339.187 4.51754 338.126 5.50754 337.603C12.1 334.113 16.5175 328.875 19.5925 322.486C22.09 322.539 24.58 322.643 27.07 322.643C419.41 322.651 811.75 322.651 1204.09 322.658C1206.59 322.658 1209.08 322.748 1211.58 322.793C1209.33 326.805 1207.71 330.908 1207.8 335.615C1207.86 338.88 1208.16 339.949 1211.42 340.308C1212.8 340.457 1214.22 340.173 1215.63 340.091C1217.06 340.943 1218.48 341.802 1219.91 342.654C1221.36 344.686 1222.83 346.711 1224.28 348.744C1224.56 350.559 1224.44 352.532 1225.19 354.146C1226.55 357.098 1227.74 360.027 1227.98 363.27C1228.02 363.905 1228.45 364.51 1228.69 365.078C1229.26 365.362 1229.7 365.736 1230.2 365.795C1233.46 366.199 1234.71 368.142 1234.79 371.011C1234.81 371.683 1234.86 372.356 1234.89 373.021C1232.68 376.264 1230 379.26 1228.74 383.011C1227.57 386.516 1227.32 390.252 1225.65 393.652C1225.23 394.504 1225.41 395.639 1225.4 396.648C1225.37 399.338 1225.41 402.036 1225.38 404.726C1225.35 407.251 1225.43 409.784 1225.19 412.295C1224.8 416.405 1221.89 419.012 1217.54 419.364C1216.47 419.446 1215.4 419.423 1214.34 419.401C1197.24 418.998 1180.17 420.178 1163.09 420.514C1162.38 420.529 1161.66 420.537 1160.96 420.634C1159.12 420.895 1158.12 421.785 1157.79 423.556C1157.58 424.714 1157.58 425.902 1157.48 427.075C1157.28 429.421 1157.13 431.775 1156.85 434.114C1156.64 435.885 1155.78 437.454 1154.02 438.141C1151.28 439.225 1149.36 441.138 1147.41 443.118C1145.64 444.911 1143.48 446.129 1140.8 445.86C1136.6 445.434 1133.19 447.213 1129.8 449.118C1126.97 450.717 1125.51 453.034 1125.55 456.202C1125.6 459.564 1125.57 462.934 1125.54 466.297C1125.51 468.471 1125.79 470.668 1124.79 472.76C1124.22 473.948 1124.59 475.106 1125.45 476.055C1126.48 477.191 1127.63 478.245 1128.72 479.328C1128.78 480.636 1128.84 481.944 1128.9 483.251C1127.82 484.357 1126.8 485.515 1125.65 486.554C1123.4 488.571 1123.23 490.656 1124.5 493.361C1126.78 498.203 1124.44 502.417 1118.95 503.643C1116.73 504.136 1114.38 504.181 1112.09 504.338C1107.02 504.689 1101.73 503.501 1096.99 506.236C1096.71 506.4 1096.3 506.37 1095.95 506.4C1091.52 506.781 1087.11 507.274 1082.67 507.484C1080.38 507.588 1078.6 508.306 1076.94 509.74C1073.62 512.602 1070.8 515.793 1068.66 519.544C1067.39 521.763 1066 523.922 1064.48 525.992C1063.03 527.957 1061.67 528.264 1059.4 527.427C1058.58 527.121 1057.85 526.53 1057.01 526.329C1053.84 525.559 1050.75 525.305 1047.96 527.576C1046.62 528.66 1044.95 529.37 1043.52 530.356C1040.52 532.433 1037.48 534.488 1034.63 536.752C1032.6 538.374 1030.74 540.227 1029 542.132C1026.75 544.591 1024.38 545.584 1021.07 543.903C1018.98 542.85 1016.61 542.812 1014.29 543.358C1008.84 544.643 1004.01 547.191 999.715 550.479C996.843 552.683 994.48 555.485 991.893 558.026C989.77 558.033 987.648 558.041 985.533 558.048C982.585 555.485 978.91 555.545 975.438 556.105C969.648 557.039 963.963 558.534 958.81 561.358C955.66 563.084 953.103 565.363 951.648 568.614C951.235 569.533 950.8 570.527 950.073 571.207C947.29 573.807 944.418 576.325 941.523 578.813C939.16 580.846 936.468 582.587 934.345 584.814C930.828 588.505 926.538 591.075 922.008 593.646C921.01 593.108 920.11 592.607 919.203 592.129C918.31 591.658 917.403 591.21 916.225 590.612C914.913 591.965 913.39 593.026 912.618 594.445C910.12 599.041 905.44 600.737 900.97 602.732C899.695 603.3 898.263 603.554 896.928 604.017C894.678 604.802 892.66 606.05 891.82 608.194C890.44 611.721 889.818 615.39 891.498 619.021C892.413 621.009 893.553 622.9 894.595 624.835C896.05 629.154 897.198 633.592 899.028 637.769C901.675 643.837 904.698 649.77 908.868 655.09C913.09 660.485 917.395 665.827 921.49 671.312C923.568 674.092 925.855 676.61 928.69 678.695C931.143 681.101 933.498 683.604 936.085 685.875C938.2 687.729 940.66 689.111 943.795 688.244C944.5 688.02 945.205 687.796 945.918 687.572C946.99 687.198 948.063 686.824 949.128 686.451C950.32 686.129 951.49 685.726 952.705 685.509C955.383 685.039 957.1 683.574 958.345 681.325C959.905 678.5 961.683 675.78 963.393 673.031C964.195 671.745 965.673 671.23 967.068 671.925C968.14 672.455 969.093 673.247 970 674.017C971.193 675.026 972.19 676.259 973.458 677.163C976.45 679.315 979.023 678.934 981.265 676.147C981.693 675.609 981.993 674.981 982.435 674.45C985.098 671.23 988.48 669.265 992.92 669.257C999.52 669.242 1006.11 669.257 1012.71 669.242C1014.35 669.242 1015.85 669.519 1017.29 670.356C1018.32 670.953 1019.57 671.2 1020.72 671.596C1022.93 672.829 1024.86 674.353 1026.3 676.386C1026.54 677.716 1026.78 679.053 1027.03 680.383C1026.69 681.056 1026.34 681.736 1026 682.408C1023.66 685.337 1021.31 688.199 1017.78 690.06C1016.1 690.949 1015.06 692.593 1014.28 694.364C1013.07 697.099 1013.58 699.647 1014.96 702.083C1015.89 703.734 1016.67 705.356 1016.71 707.268C1016.79 710.399 1015.74 712.036 1012.65 712.91C1010.97 713.388 1009.2 713.657 1007.44 713.822C1005.57 714.001 1004.06 714.636 1002.87 716.033C1002.2 716.81 1001.49 717.588 1000.65 718.185C998.56 719.68 996.258 720.322 993.685 719.306C992.703 718.918 991.765 718.417 990.753 718.133C988.855 717.595 986.905 717.483 985.015 718.2C982.248 719.254 979.503 720.36 976.75 721.436C975.025 721.929 973.308 722.415 971.583 722.908C969.768 721.585 967.945 720.263 966.13 718.94C964.533 716.945 962.733 715.226 959.973 714.763C957.97 712.529 955.773 710.579 952.45 710.354C945.775 709.234 942.228 711.027 940.983 716.84C940.135 720.778 937.9 723.558 934.758 725.889C932.238 727.757 929.523 729.311 926.448 730.343C923.365 731.374 921.505 733.518 921.1 736.679C920.905 738.174 920.62 739.661 920.373 741.155C918.895 742.522 917.41 743.882 915.933 745.25C914.56 745.07 913.188 744.891 911.815 744.712C910.225 743.255 908.935 741.349 906.31 741.454C905.598 741.693 904.893 741.94 904.18 742.179C903.108 742.47 902.035 742.761 900.963 743.053C900.61 743.015 900.25 742.986 899.898 742.948C894.835 742.336 890.388 743.247 886.863 747.11C886 748.059 884.538 748.762 883.218 749.053C879.745 749.823 877.135 751.676 874.818 754.104C873.273 755.726 871.593 757.25 869.89 758.722C867.543 760.747 865.998 763.235 865.9 766.179C865.795 769.43 863.965 771.104 861.04 772.045C857.665 773.136 855.265 775.206 853.488 778.09C851.373 781.512 848.253 783.993 844.66 785.973C842.665 787.072 840.67 788.163 838.675 789.254C834.955 790.711 830.98 790.337 827.11 790.726C826.045 790.748 824.973 790.778 823.908 790.8C823.555 790.658 823.21 790.673 822.873 790.853C822.138 790.86 821.403 790.875 820.668 790.883C820.315 790.868 819.955 790.853 819.603 790.838C814.84 789.627 811.188 786.78 807.685 783.687C806.163 782.342 805 780.563 803.133 779.981C801.318 780.242 799.765 780.466 798.213 780.691C796.06 779.368 793.9 778.053 791.748 776.73C790.615 774.855 789.205 773.076 788.41 771.074C787.165 767.943 788.29 765.44 791.38 763.9C792.775 763.205 794.373 762.892 795.873 762.376C797.838 761.696 798.43 760.971 798.385 759.021C798.34 756.675 798.138 754.328 798.085 751.982C797.995 748.022 798.805 744.398 801.64 741.2C802.953 739.713 803.575 737.643 804.325 735.775C804.513 735.304 804.018 734.579 803.83 733.974C803.088 732.308 802.345 730.679 802.33 728.788C802.323 727.854 801.775 726.913 801.475 725.979C801.61 723.984 800.695 722.362 799.435 720.868C797.755 716.317 794.073 713.724 789.633 711.834C787.923 711.109 786.408 711.049 784.675 711.961C782.875 712.91 780.85 713.493 778.923 714.233C777.858 714.173 776.793 714.12 775.728 714.061C775.428 713.851 775.098 713.792 774.738 713.889C771.948 712.619 769.645 710.878 768.1 708.262C767.71 707.597 766.788 707.216 766.105 706.701C765.415 706.327 764.733 705.953 764.043 705.587C763.698 705.303 763.345 705.027 763 704.743C762.82 704.287 762.783 703.689 762.453 703.398C757.743 699.37 752.628 696.426 745.84 696.8C742.578 696.979 739.593 697.248 736.788 699.027C735.378 699.923 733.563 700.245 731.928 700.827C731.185 700.812 730.443 700.805 729.7 700.79C727.555 699.781 725.41 698.772 723.265 697.764C723.085 697.48 722.928 697.173 722.718 696.904C718.398 691.285 718.72 685.95 723.925 681.168C727.638 677.753 731.943 675.026 736.548 672.799C738.49 671.858 740.05 670.647 741.61 669.227C743.905 667.15 746.523 665.379 749.028 663.511C752.095 661.232 755.2 659.005 758.26 656.719C759.093 656.099 759.805 655.329 760.57 654.627C763.728 651.727 767.373 649.77 771.865 649.501C776.823 649.202 781.135 647.513 785.005 644.547C786.753 643.209 788.883 642.312 790.84 641.221C793.308 640.444 795.768 639.675 798.235 638.898C799.323 638.86 800.403 638.823 801.49 638.793C802.135 638.823 802.893 639.084 803.403 638.845C804.483 638.345 803.688 638.001 803.118 637.724C802.563 636.798 802.015 635.871 801.46 634.945C801.43 634.601 801.4 634.257 801.37 633.914C801.385 632.576 801.4 631.231 801.408 629.894C801.685 627.151 802.038 624.387 799.81 622.01C797.08 622.324 795.4 623.901 793.9 625.739C792.153 625.799 790.413 625.866 788.665 625.911C786.603 625.963 784.93 625.201 783.603 623.729C783.04 623.101 782.47 622.466 781.908 621.839C781.383 621.196 780.993 620.344 780.31 619.955C778.503 618.917 776.575 618.065 774.685 617.168C774.22 616.944 773.673 616.645 773.2 616.683C768.843 617.086 764.26 616.16 760.255 618.73C757.975 620.195 755.343 620.598 752.62 620.576C749.77 620.553 746.928 620.591 744.078 620.568C741.22 620.538 738.415 620.508 735.828 622.063C734.83 622.66 733.48 622.855 732.265 622.974C728.2 623.37 724.128 623.647 720.055 623.976C717.595 623.819 715.135 623.662 712.675 623.505C709.803 622.272 706.938 621.039 704.065 619.806C703.435 616.391 701.08 614.501 697.66 613.978C694 613.417 691.023 611.9 688.285 609.592C685.825 607.522 682.825 606.52 679.458 606.797C679.083 606.782 678.708 606.767 678.34 606.752C677.62 606.745 676.908 606.745 676.188 606.737C674.11 606.573 672.033 606.408 669.948 606.244C668.695 605.108 667.27 604.092 666.213 602.814C664.248 600.438 665.32 597.965 668.425 597.307C669.595 597.061 670.75 596.724 671.913 596.425C674.028 595.858 676.143 595.29 678.258 594.722C681.16 594.976 682.105 594.655 682.488 593.287C682.863 591.972 682.278 590.433 680.628 589.596C679.308 588.931 677.74 588.722 676.278 588.303C674.943 587.982 673.623 587.541 672.273 587.377C669.76 587.063 668.568 585.725 668.373 583.431C668.493 582.071 668.613 580.719 668.733 579.359C669.093 578.604 669.588 577.879 669.798 577.095C670.188 575.608 669.85 575.137 668.133 574.517C667.653 574.345 667.09 574.367 666.565 574.308C663.535 571.356 660.01 570.519 655.863 571.917C654.873 572.253 653.77 572.275 652.713 572.432C651.138 572.671 649.525 573.194 647.988 573.052C646.3 572.895 644.673 572.111 643.12 571.625C639.07 574.353 637.525 574.876 633.16 574.24C631.473 573.994 629.89 573.067 628.278 572.41C626.973 571.872 625.63 571.012 624.228 571.677C620.89 573.269 617.545 574.704 613.698 574.764C613.053 574.771 612.325 575.212 611.808 575.638C609.918 577.192 607.705 577.513 605.32 577.394C604.615 577.356 603.888 577.379 603.19 577.461C600.94 577.722 600.063 578.589 600.025 580.749C599.98 583.439 600.13 586.129 600.033 588.811C599.935 591.397 599.125 593.668 596.845 595.454C593.913 597.756 592.06 600.827 590.815 604.234C590.41 605.332 590.028 606.52 589.278 607.402C587.913 609.001 587.163 610.862 586.143 612.61C583.78 616.645 580.81 620.225 575.305 620.591C574.803 620.621 574.315 620.86 573.91 620.979C573.76 621.226 573.603 621.36 573.588 621.51C573.49 622.339 573.333 623.169 573.37 623.998C573.588 628.87 571.608 632.733 567.828 636.036C563.26 640.033 558.933 644.278 554.508 648.425C549.94 652.706 549.94 652.706 544.045 650.203C542.058 650.868 540.033 651.458 538.09 652.243C537.333 652.549 536.425 653.184 536.185 653.864C534.783 657.81 531.228 660.694 530.538 665.095C530.073 668.039 526.848 669.616 523.578 669.407C522.355 669.332 521.163 668.921 519.955 668.659C517.75 668.174 515.553 667.681 513.528 667.225C511.975 668.891 512.32 670.318 513.138 671.716C513.933 673.068 514.405 674.435 514.33 676.027C514.023 682.453 515.44 681.99 520.945 682.603C525.325 688.192 525.633 694.14 522.805 700.424C521.92 702.397 521.298 704.474 520.555 706.506C519.475 707.53 518.403 708.546 517.323 709.57C516.033 709.816 514.75 710.063 513.46 710.31C511.09 709.518 511.3 707.567 511.173 705.759C512.538 703.749 512.553 701.732 511.24 699.692C510.61 696.949 509.553 694.424 507.168 692.578C506.98 692.302 506.86 691.906 506.598 691.764C502.375 689.567 498.093 687.594 493.023 688.296C491.988 688.438 490.9 688.281 489.835 688.237C485.605 688.057 481.72 688.924 478.42 691.569C476.898 692.795 475.023 693.161 473.23 693.833C469.045 695.41 464.433 696.606 462.37 701.208C461.56 703.009 459.775 703.301 457.878 702.314C456.483 701.59 455.238 700.611 453.865 699.848C452.65 699.168 451.413 699.677 450.888 700.977C450.7 701.44 450.498 701.926 450.453 702.419C450.16 705.61 448.068 707.112 444.993 707.724C439.66 707.567 434.808 705.901 430.563 702.972C427.81 701.074 424.938 700.185 421.623 700.267C419.77 699.094 417.88 697.973 416.088 696.725C414.993 695.963 414.025 695.029 413.08 694.095C412.263 693.28 411.558 692.369 410.8 691.495C409.653 688.543 408.91 685.517 406.6 682.961C404.725 680.877 405.678 677.17 408.01 675.198C409.9 673.599 412.12 672.433 414.7 672.373C418.923 672.276 423.198 671.686 427.413 673.203C429.4 671.372 429.205 669.227 428.823 667.06C428.74 666.575 428.425 666.134 428.23 665.663C425.928 660.178 426.52 658.034 431.508 654.44C433.06 653.319 434.778 652.407 436.345 651.316C437.628 650.427 439.023 649.575 439.975 648.417C441.198 646.923 442.54 645.72 444.265 644.756C446.433 643.538 447.31 641.588 446.973 639.196C446.928 638.86 446.845 638.531 446.845 638.195C446.793 631.732 448.33 630.282 454.585 629.789C456.94 629.602 459.19 629.303 460.803 627.428C461.62 626.471 462.168 625.47 461.718 624.192C461.493 623.557 461.253 622.914 461.125 622.264C460.683 619.97 461.178 617.968 463.053 616.302C464.59 614.942 466.255 613.656 467.26 611.557C465.483 609.913 463.75 608.306 462.01 606.7C461.83 603.86 461.605 601.028 461.38 598.204ZM836.733 617.744C837.475 618.67 838.368 619.522 838.93 620.531C840.333 623.042 842.485 624.073 845.418 623.968C849.678 623.811 853.848 624.11 857.298 626.456C859.285 625.679 859.878 624.252 860.08 622.758C860.388 620.434 860.733 618.17 861.978 616.062C862.638 614.949 861.978 614.097 860.343 613.552C859.855 613.387 859.3 613.425 858.775 613.365C856.593 611.661 854.545 609.771 851.77 608.882C848.913 607.97 846.04 607.088 843.198 606.117C841.9 605.669 840.775 605.781 839.703 606.565C838.863 607.185 838.06 607.85 837.19 608.426C835.008 609.875 832.323 610.518 830.11 609.42C825.865 607.32 822.003 607.589 817.968 609.606C817.21 609.98 816.228 609.92 815.395 610.204C814.945 610.354 814.615 610.809 814.18 611.161C814.368 611.676 814.413 612.259 814.735 612.565C815.35 613.148 816.16 613.552 816.843 614.082C822.168 618.274 821.17 617.691 826.788 616.884C830.118 616.414 833.523 616.339 836.733 617.744ZM876.228 627.286C876.288 627.286 876.348 627.286 876.408 627.293C876.408 628.638 876.295 629.991 876.438 631.321C876.595 632.86 877.653 633.577 879.385 633.57C879.558 633.57 879.738 633.503 879.91 633.495C883.053 633.361 883.038 633.361 883.975 636.484C884.163 637.119 884.403 637.784 884.815 638.292C885.085 638.621 885.753 638.868 886.173 638.8C886.585 638.733 886.975 638.255 887.268 637.881C887.463 637.635 887.575 637.239 887.545 636.925C887.298 634.25 887.065 631.567 886.705 628.9C886.623 628.287 886.21 627.57 885.708 627.174C883.525 625.455 881.283 623.796 879.01 622.19C878.118 621.555 876.723 622.175 876.558 623.266C876.355 624.596 876.333 625.948 876.228 627.286ZM913.173 673.569C911.073 676.117 911.2 678.814 911.928 681.415C912.258 682.588 913.27 683.903 914.373 684.508C916.945 685.935 919.728 687.026 922.488 688.117C922.96 688.304 923.913 687.953 924.333 687.549C924.745 687.161 925.098 686.257 924.895 685.816C924.348 684.613 923.583 683.462 922.735 682.416C921.123 680.436 919.405 678.53 917.688 676.632C916.548 675.384 915.46 674.032 913.173 673.569ZM565.233 608.388C565.368 607.783 565.608 607.372 565.48 607.2C563.373 604.324 560.703 601.828 559.195 598.51C558.828 597.696 557.215 597.128 556.083 596.934C554.575 596.672 553.398 597.576 552.603 598.809C552.018 599.713 552.318 600.827 553.495 601.947C553.99 602.418 554.515 602.904 555.115 603.248C557.853 604.802 560.613 606.319 563.395 607.806C563.928 608.09 564.588 608.187 565.233 608.388ZM685.413 574.128C683.635 570.385 682.848 569.623 679.45 568.397C678.28 569.735 676.998 571.072 675.858 572.514C674.845 573.792 675.648 575.212 677.395 575.212C679.668 575.212 681.948 575.1 684.213 574.935C684.64 574.905 685.03 574.397 685.413 574.128ZM698.613 575.025C698.605 575.085 698.605 575.152 698.598 575.212C697.54 575.212 696.445 575.047 695.448 575.264C694.683 575.436 693.73 575.959 693.43 576.572C693.025 577.401 693.775 578.074 694.683 578.425C695.335 578.671 696.025 578.888 696.595 579.262C699.558 581.182 701.155 580.114 703.135 578.373C703.57 577.992 703.945 577.14 703.795 576.669C703.63 576.168 702.865 575.653 702.258 575.503C701.08 575.204 699.835 575.167 698.613 575.025ZM897.445 651.974C896.14 648.059 895.938 647.408 894.415 646.855C892.998 646.34 891.393 646.168 889.855 646.086C889.368 646.056 888.543 646.721 888.393 647.207C888.243 647.692 888.558 648.649 888.993 648.895C890.928 650.016 892.96 651.017 895.015 651.937C895.555 652.176 896.305 651.974 897.445 651.974ZM861.318 631.425C860.898 631.545 860.515 631.56 860.268 631.739C859.12 632.569 859.158 633.734 859.42 634.892C859.69 636.073 860.695 636.746 862.135 636.798C863.245 636.843 864.228 636.559 864.813 635.587C864.97 635.326 865.06 634.9 864.94 634.653C864.198 633.092 863.028 631.926 861.318 631.425ZM878.253 612.707C876.273 612.752 875.035 613.141 874.038 614.097C873.843 614.284 873.723 614.815 873.85 614.964C874.15 615.3 874.645 615.749 875.02 615.711C876.565 615.577 877.398 614.553 878.253 612.707Z" fill="#FFD500"/>
<path d="M1211.59 322.762C1209.09 322.717 1206.6 322.628 1204.11 322.628C811.765 322.62 419.425 322.62 27.085 322.613C24.595 322.613 22.0975 322.508 19.6075 322.456C19.9525 317.666 21.235 313.258 25.3225 309.992C25.585 309.783 25.8401 309.469 25.9076 309.163C27.1751 303.551 32.4851 300.6 35.4701 296.124C35.8376 295.571 36.4225 295.13 36.955 294.689C39.5425 292.545 41.6275 292.462 44.59 294.383C45.0175 294.659 45.4 295.01 45.7975 295.324C48.265 298.074 51.6475 298.455 54.9325 298.769C56.335 297.304 56.05 295.997 54.9625 295.025C53.98 294.144 52.645 293.621 51.4675 292.941C50.8375 292.186 50.2 291.431 49.57 290.677C49.09 289.414 48.4375 288.173 48.1975 286.873C48.0325 285.954 48.2425 284.878 48.6025 283.981C50.05 280.387 51.625 276.838 53.1175 273.341C50.4925 269.209 50.9351 264.718 50.3651 260.429C50.1176 258.568 50.0575 256.768 48.79 255.206C47.6425 253.786 47.9875 252.374 48.955 250.999C50.0425 249.46 51.1075 247.913 52.21 246.381C53.1025 245.148 54.0025 243.923 54.9475 242.727C55.9 241.517 56.8 240.247 57.925 239.186C72.19 225.743 86.485 212.338 100.788 198.933C102.543 197.289 104.095 195.436 106.623 194.629C107.538 194.337 108.288 193.403 108.978 192.649C111.093 190.31 113.65 188.479 116.463 187C121.038 184.601 125.088 181.634 128.38 177.771C129.52 176.426 130.878 175.38 132.678 174.924C133.36 174.753 134.148 174.655 134.665 174.259C137.283 172.249 140.245 172.13 143.275 172.899C145.81 173.542 147.843 172.571 148.578 170.643C150.168 166.443 153.288 163.641 157.09 161.205C156.213 154.152 154.488 147.569 150.565 141.591C148.593 138.58 149.335 135.591 152.418 133.304C153.243 132.691 153.963 131.967 154.945 131.107C154.368 130.001 153.91 128.948 153.295 127.976C151.75 125.518 149.95 123.179 149.68 120.19C149.665 120.026 149.643 119.832 149.545 119.705C146.328 115.722 146.455 110.865 145.578 106.27C146.005 104.26 145.405 102.728 143.298 101.891C142.75 101.472 142.24 100.994 141.648 100.636C138.28 98.5882 136.075 95.9654 136.495 91.908C136.66 90.2865 135.753 89.0088 134.725 87.8058C132.925 85.7061 132.835 83.5242 134.455 81.3049C137.44 77.2102 137.193 73.078 134.53 68.9832C132.88 66.4501 132.888 63.8722 133.983 61.2345C134.763 59.359 135.64 57.5134 136.638 55.735C137.53 54.1434 139.06 53.2467 140.988 53.2169C144.55 53.1645 148.12 53.172 151.683 53.2094C153.745 53.2318 155.388 54.3003 157.03 55.324C161.89 58.3503 161.59 58.2307 166.443 55.2269C167.335 54.6739 168.213 54.0687 169.18 53.6502C174.828 51.2143 178.42 46.985 180.955 41.7993C181.48 40.7308 181.96 39.6398 182.59 38.6311C184.908 34.88 188.035 32.601 193 32.9671C197.433 33.2959 201.895 33.2735 206.35 33.3183C213.835 33.393 221.328 33.4155 228.813 33.4304C230.815 33.4304 232.555 32.6383 234.385 31.9061C239.688 29.7615 245.013 29.246 250.038 32.7654C253.465 35.164 257.35 36.098 261.595 36.0233C266.41 35.9411 271.225 36.0457 276.04 36.0307C279.265 36.0233 282.453 36.1727 285.505 37.2861C286.698 38.6834 288.288 39.3036 290.148 39.3484C291.565 39.3858 292.99 39.468 294.408 39.3783C297.61 39.1915 300.423 39.9761 302.53 42.3223C305.088 45.1618 308.425 45.8418 312.115 45.7147C313.533 45.6699 314.95 45.5504 316.368 45.5728C318.183 45.5952 319.99 45.9837 321.258 47.2316C323.688 49.6227 326.665 50.3251 329.988 50.1009C332.755 49.9141 335.178 50.7062 337.6 51.9017C341.373 53.7623 345.213 55.5108 349.113 57.1174C350.86 57.8347 352.818 58.3503 354.708 58.4698C357.34 58.6417 360.01 58.3577 362.665 58.2755C363.73 58.3353 364.795 58.3951 365.86 58.4549C367.105 59.2694 368.088 60.2856 368.62 61.653C368.89 62.9382 369.153 64.2234 369.423 65.5087C369.52 66.8611 370.555 67.5187 371.643 68.0641C373.27 68.8786 374.32 69.9247 374.815 71.748C375.468 74.1615 376.435 74.6248 378.97 74.6023C380.935 74.5799 382.84 74.3782 384.145 72.7193C385.18 72.3233 386.223 71.9273 387.258 71.5313C387.985 71.479 388.72 71.4192 389.448 71.3669C390.648 71.5387 391.84 71.7106 393.04 71.875C395.613 72.2262 398.14 72.5624 399.933 74.7144C400.405 75.2823 401.455 75.4168 402.243 75.7531C404.215 76.8216 404.215 76.8216 406.548 74.8116C407.403 74.5949 408.273 74.4155 409.12 74.154C410.8 73.6384 412.315 74.1017 413.68 74.9535C414.715 75.5962 415.555 76.5078 416.568 77.1877C420.303 79.676 424.015 79.0408 426.715 75.514C429.018 72.5101 429.018 72.5101 434.523 69.7305C436.548 69.8724 437.283 71.6956 438.7 72.6297C438.985 74.1167 439.233 75.6036 439.57 77.0831C440.103 79.3771 441.835 80.4755 444.295 80.0197C445.51 79.7955 446.673 79.2874 447.888 79.0408C451.458 78.3235 454.48 79.7283 457.54 81.2227C459.985 82.4183 460.233 84.5852 460.788 86.6849C460.008 88.9714 460.525 90.8993 462.543 92.5955C464.89 91.5419 467.103 90.578 467.38 87.8058C468.393 85.3624 470.298 83.6138 472.398 82.0073C475.99 81.4843 479.14 79.9973 482.11 78.0993C482.845 77.6286 483.55 77.1205 484.293 76.6572C487.615 74.565 490.908 74.5127 494.155 76.8067C494.583 77.1055 495.018 77.3895 495.445 77.6809C497.133 80.4157 498.82 83.158 500.5 85.8929C500.613 88.0673 500.808 90.2417 500.808 92.4087C500.808 94.5083 501.61 96.339 502.638 98.11C503.748 100.023 505.63 100.598 507.52 99.4998C509.313 98.4537 510.978 97.2208 512.703 96.07C514.488 94.9044 516.273 93.7312 518.058 92.5656C519.108 90.8843 521.17 90.5182 522.708 89.4571C524.643 88.1196 526.75 88.4035 528.573 89.9055C530.433 91.4373 532.248 93.0214 533.928 94.456C537.108 94.598 538.9 92.1322 541.495 91.6838C543.925 91.2654 546.415 91.1683 548.883 90.9292C549.948 91.8184 551.013 91.8184 552.085 90.9292C555.333 90.974 558.618 90.7199 561.753 91.8632C564.648 94.5382 567.543 97.2208 570.445 99.8958C571.3 101.532 572.448 102.997 572.583 104.984C572.725 107.136 574.233 108.676 576.1 109.797C577.173 110.447 578.433 110.775 579.663 110.185C581.935 109.094 583.975 107.779 584.02 104.999C584.013 104.035 584.238 103.012 583.945 102.13C583.023 99.3578 581.913 96.6454 580.87 93.9106C580.503 90.7498 580.045 87.5891 579.783 84.4134C579.415 80.087 580.405 76.1491 583.323 72.5998C585.738 69.6632 587.358 66.2932 587.395 62.4152C587.41 60.1137 588.61 58.2083 590.073 56.4972C592.75 53.3738 595.758 50.5119 597.918 46.9775C598.683 45.7222 600.145 44.833 601.33 43.8168C603.1 42.2999 604.428 40.5813 604.465 38.2052C604.503 35.9635 605.763 34.4392 607.713 33.3258C609.378 32.3768 611.035 31.4278 612.775 30.434C616.473 31.8687 620.125 33.0568 624.1 33.2585C626.2 33.3632 627.858 33.0493 629.478 31.7492C632.193 29.5673 635.05 27.5348 638.807 27.2285C639.865 28.0878 640.923 28.1326 642.003 27.2584C642.865 27.4452 643.773 27.5273 644.575 27.8487C648.438 29.3954 652.443 29.5673 656.59 29.4925C660.115 29.4328 663.655 30.0007 667.173 30.3967C669.01 30.6059 670.57 31.398 671.343 33.139C672.325 35.3657 674.365 35.8215 676.578 35.9112C679.135 36.0158 681.497 35.3059 683.665 34.0581C684.723 33.4528 685.593 32.4441 686.718 32.0555C691.135 30.5162 692.703 27.2808 693.04 23.1935C693.19 21.3404 693.745 19.6143 694.578 17.9031C695.23 16.5731 695.403 15.0188 695.71 13.5468C696.055 11.9179 696.31 10.2665 696.655 8.34616C698.133 8.03232 699.46 7.52421 700.802 7.50927C705.453 7.47938 710.058 7.74091 714.085 10.3935C714.798 10.8643 715.698 11.0885 716.508 11.4247C718.6 12.9939 720.94 13.6963 723.61 13.2629C727.825 14.0923 731.658 13.4123 735.235 11.0137C738.858 8.58527 742.84 6.66491 746.035 3.64613C747.895 1.88268 750.4 1.42688 752.943 1.42688C756.677 1.41941 760.413 1.57632 764.148 1.51655C766.795 1.47171 769.045 2.10685 770.883 3.96743C771.355 4.44566 771.985 4.78938 772.465 5.14057C774.73 5.42452 776.298 4.1916 778.045 3.42943C780.13 2.51782 782.26 1.69588 784.368 0.829102C786.19 0.933713 788.013 1.03832 789.835 1.15041C790.578 1.68841 791.32 2.22641 792.062 2.76441C793.307 4.20655 794.56 5.64868 795.805 7.09082C796.203 7.71849 796.593 8.34616 796.99 8.97382C797.448 9.96763 797.905 10.9614 798.363 11.9552C799.023 15.2206 801.265 16.7972 804.617 17.2082C806.312 18.6504 808.008 20.0925 809.703 21.5421C810.805 22.4836 811.413 23.6493 811.443 25.0615C809.823 27.1089 808.18 29.2758 809.26 31.9509C810.52 35.0668 812.035 38.108 813.648 41.0745C814.45 42.5465 815.703 43.8093 817.562 44.2651C818.995 45.1917 820.427 46.1182 821.86 47.0373C824.62 49.3014 827.372 51.573 830.148 53.8221C831.963 55.2941 832.953 57.1398 833.065 59.4038C832.998 59.5608 832.908 59.7102 832.87 59.8746C831.558 65.8972 832.803 67.7578 823.278 68.7217C820.15 69.0355 817.143 70.2161 815.433 73.1154C815.793 73.7132 816.003 74.1914 816.325 74.565C820.758 79.6685 824.02 85.0635 821.988 92.0873C821.335 94.3365 822.258 96.3166 824.035 98.0352C825.49 99.4475 827.44 100.546 827.98 102.578C827.958 102.847 827.973 103.019 827.92 103.176C826.69 106.89 826.93 107.248 830.815 107.413C831.34 107.435 831.88 107.338 832.405 107.301C834.61 107.764 836.808 108.22 839.013 108.683C840.903 109.131 842.838 109.453 844.668 110.058C846.31 110.604 848.2 111.127 849.333 112.247C851.035 113.936 852.955 114.205 855.108 114.16C856.87 114.123 858.625 113.959 860.388 113.854C861.723 113.465 863.2 113.294 864.378 112.643C869.275 109.953 874.173 109.991 879.168 112.277C880.42 114.228 881.68 116.178 882.933 118.128C883.105 123.986 884.657 125.712 890.455 126.422C891.857 126.594 893.283 126.639 894.7 126.744C895.473 127.573 896.245 128.395 897.01 129.224C896.86 130.143 896.703 131.07 896.553 131.989C894.963 133.252 894.798 134.679 895.675 136.442C896.493 138.094 897.378 139.827 897.602 141.598C897.887 143.892 898.983 145.656 900.303 147.471C902.403 150.356 904.48 153.285 906.235 156.363C907.945 159.345 908.162 162.491 905.485 165.218C904.285 166.443 904.045 167.841 904.09 169.38C904.135 170.718 904.083 172.063 904.263 173.385C904.66 176.322 905.957 178.78 908.672 180.491C910.427 181.597 912.062 182.875 913.75 184.07C914.815 185.774 915.85 187.493 916.96 189.166C918.738 191.864 919.585 191.931 922.668 189.727C924.393 188.21 926.125 186.701 927.85 185.184C933.37 182.128 933.37 182.21 940.352 182.09C944.867 182.016 949.247 182.255 953.282 184.414C955.12 186.596 956.958 188.778 958.795 190.952C958.81 192.634 960.122 193.56 961.188 194.636C962.823 196.295 964.51 196.175 966.242 194.778C968.777 194.367 971.32 193.956 973.855 193.545C975.213 194.479 976.578 195.406 977.935 196.34C978.588 198.357 979.135 200.464 982.255 200.928C983.748 199 985.263 197.05 986.778 195.092C990.025 195.025 992.703 193.56 994.66 191.378C997.473 188.255 1001.58 187.425 1005.05 185.505C1005.84 185.072 1007.14 185.206 1008.11 185.445C1009.29 185.729 1010.36 186.402 1011.51 186.917C1017.01 185.206 1021.91 182.681 1025.64 178.414C1028.27 175.41 1031.72 174.939 1035.3 176.045C1037.04 176.583 1038.44 178.108 1040 179.184C1040.35 182.456 1042.11 184.638 1045.5 185.617C1047.57 186.215 1049.09 187.552 1050.42 189.107C1050.93 192.903 1051.6 196.609 1054.3 199.732C1056.84 202.661 1059.11 205.785 1061.59 208.751C1062.66 210.021 1064.19 210.358 1065.88 209.969C1069.54 210.926 1072.55 212.756 1074.97 215.588C1076.28 217.113 1077.92 218.458 1079.62 219.586C1081.84 221.058 1085.54 220.991 1087.04 219.578C1088.97 217.778 1088.61 215.693 1087.54 213.616C1087.46 213.466 1087.35 213.339 1087.26 213.197C1089.05 206.943 1094.02 204.993 1099.66 208.363C1100.55 208.893 1101.35 209.558 1102.19 210.163C1104.06 213.257 1106.84 214.512 1110.62 214.251C1113.45 214.056 1116.32 214.333 1119.17 214.303C1121.81 214.273 1124.06 214.923 1125.78 216.933C1127.17 218.562 1129.08 219.646 1131.18 219.974C1135.01 220.572 1138.38 221.805 1140.97 224.63C1141.19 224.876 1141.55 225.026 1141.86 225.183C1144.82 226.714 1147.73 225.96 1149.57 223.15C1149.93 222.59 1150.15 221.94 1150.44 221.327C1151.62 220.385 1152.77 219.392 1154.01 218.517C1155.54 217.426 1156.66 217.464 1158.24 218.622C1159.47 219.519 1160.63 220.497 1161.81 221.446C1162.36 222.664 1162.9 223.882 1163.46 225.093C1165.5 229.509 1167.53 230.6 1172.46 230.137C1175.42 229.853 1178.4 229.711 1181.37 229.502C1183.83 230.563 1186.79 230.458 1188.92 232.319C1189.65 234 1190.3 235.718 1191.14 237.34C1192.42 239.821 1194.42 241.562 1197.31 242.361C1199.14 242.862 1200.95 243.475 1202.7 244.177C1204.32 244.82 1205.79 244.745 1207.11 243.669C1207.9 243.034 1208.56 242.264 1209.28 241.554C1209.62 241.203 1209.96 240.859 1210.3 240.508C1210.98 240 1211.61 239.432 1212.33 238.991C1216.91 236.227 1221.54 235.337 1226.27 238.715C1226.78 239.634 1227.31 240.56 1227.83 241.479C1227.54 243.198 1227.63 245.029 1226.26 246.449C1224.13 247.689 1222.56 249.4 1221.27 251.5C1221.54 252.15 1221.67 252.837 1222.07 253.338C1223.64 255.326 1225.16 257.358 1226.92 259.181C1230.03 262.379 1231.91 265.951 1231.76 270.375C1231.72 271.533 1231.86 272.691 1231.93 273.849C1231.09 275.687 1230.41 277.608 1229.37 279.341C1227.97 281.673 1226.37 283.907 1224.72 286.081C1223.04 288.285 1221.56 290.52 1221.12 293.269C1220.79 295.347 1219.22 296.408 1217.22 296.968C1216.38 297.207 1215.44 297.177 1214.62 297.469C1212.14 298.358 1209.66 299.27 1207.26 300.331C1205.96 300.906 1205.49 302.281 1206.1 303.305C1207.33 305.374 1208.88 307.153 1211.23 308.244C1213.29 309.2 1215.01 308.393 1216.79 307.631C1217.75 307.982 1218.74 308.259 1219.65 308.692C1222.05 309.828 1224.27 309.641 1226.37 308.05C1228.37 307.654 1230.23 307.81 1231.79 309.23C1231.95 309.895 1232.1 310.56 1232.26 311.233C1231.86 312.899 1231.45 314.565 1231.05 316.232C1229.29 317.883 1228 320.072 1225.3 320.61C1223.37 320.513 1221.43 320.401 1219.49 320.326C1216.54 320.244 1213.88 320.969 1211.59 322.762Z" fill="#005BBB"/>
</svg>
